<?xml version="1.0" encoding="utf-8" ?><svg xmlns="http://www.w3.org/2000/svg" xmlns:xlink="http://www.w3.org/1999/xlink" width="1024" height="1024" viewBox="0 0 1024 1024"><path d="M511.556 263.499C519.845 265.554 536.099 272.928 544.222 276.5C573.792 289.505 601.883 304.095 628.117 323.121C635.567 328.523 642.942 333.441 649.944 339.617C612.764 337.987 582.103 345.538 553.532 370.974C530.269 391.684 515.617 419.055 512.774 450.322C512.647 451.719 512.826 454.024 513.534 455.263C515.032 456.314 519.861 459.018 520.736 459.909C533.857 473.25 547.453 486.226 560.394 499.725C563.073 502.519 565.948 507.816 567.942 511.25C637.548 506.81 686.473 445.739 680.911 376.624C680.687 373.834 680.433 370.816 680.308 368.022C717.558 408.507 742.235 460.816 760.269 512.322C743.967 556.133 728.209 595.139 699.684 632.823C693.839 640.545 687.223 647.971 680.891 655.316C681.261 646.69 682.269 641.055 681.835 632.011C680.217 602.038 668.397 573.519 648.339 551.187C632.549 533.931 610.82 521.454 588.286 515.856C582.976 514.537 575.937 512.676 570.502 512.42C569.76 512.386 569.018 512.372 568.275 512.378C560.546 525.712 555.031 529.933 544.404 540.59C533.034 551.991 524.961 560.656 511.652 570.126C512.941 574.084 513.486 579.275 514.227 583.441C515.259 589.022 516.554 594.551 518.11 600.009C534.059 654.419 594.055 692.724 650.066 684.925C617.084 712.122 583.982 732.905 543.874 747.681C532.908 751.721 523.484 755.926 511.921 759.055C502.556 756.545 493.51 752.738 484.457 749.495C449.149 736.849 417.575 718.93 388.124 695.692C384.513 692.843 377.881 687.757 374.752 684.656C402.458 689.653 436.405 679.414 459.186 663.576C485.601 645.473 503.609 617.492 509.143 585.951C510.029 580.922 510.606 575.772 511.195 570.696C504.564 564.337 495.862 555.447 489.361 549.068C482.125 541.967 458.659 521.055 454.36 514.03L453.778 512.904C450.519 513.092 447.274 513.478 444.062 514.061C411.081 519.936 386.714 535.631 367.588 563.038C351.925 585.051 343.58 611.431 343.733 638.447C343.726 644.442 343.87 650.808 344.917 656.693C318.935 630.157 296.111 590.371 281.007 556.574C275.054 543.255 269.447 526.193 264.574 512.266C278.072 468.184 299.024 426.741 326.52 389.736C331.871 382.544 338.453 373.534 344.852 367.401C344.564 369.848 344.321 372.3 344.126 374.757C343.335 385.609 343.417 396.495 345.021 407.263C353.168 461.972 397.159 507.829 453.331 511.706C454.475 510.544 455.574 508.186 457.227 506.438C469.415 494.835 481.426 482.935 493.366 471.072C497.135 467.329 508.444 457.268 511.303 453.898C506.579 401.943 476.584 362.509 426.532 344.983C408.869 338.797 393.194 338.812 374.786 339.226C385.079 331.082 396.702 321.692 407.648 314.565C429.876 300.093 454.235 287.316 478.624 276.88C488.779 272.534 500.981 266.782 511.556 263.499ZM457.566 507.409C456.091 509.616 455.044 511.159 454.87 513.897C456.152 515.556 457.109 516.394 458.646 517.846C475.785 518.065 492.926 518.13 510.066 518.042C510.239 524.07 509.086 565.713 511.037 568.247C512.63 568.045 512.342 567.982 513.804 567.015C515.246 564.407 514.365 524.428 514.569 518.023L543.512 517.994C548.62 517.985 558.074 517.708 562.739 518.614C564.299 516.554 565.894 514.069 567.357 511.905L563.638 505.924C547.6 505.436 530.736 505.779 514.683 505.989C514.154 498.272 515.221 460.98 513.86 456.939L513.329 456.815C512.289 459.97 510.072 462.365 510.084 465.058C510.144 478.539 509.268 492.641 509.916 506.081C499.566 505.925 489.092 505.94 478.738 505.926C473.655 505.919 461.625 505.123 457.566 507.409Z"/><path fill="#E2E2E2" fill-opacity="0.0078431377" d="M509.916 506.081C509.268 492.641 510.144 478.539 510.084 465.058C510.072 462.365 512.289 459.97 513.329 456.815L513.86 456.939C515.221 460.98 514.154 498.272 514.683 505.989C530.736 505.779 547.6 505.436 563.638 505.924L567.357 511.905C565.894 514.069 564.299 516.554 562.739 518.614C558.074 517.708 548.62 517.985 543.512 517.994L514.569 518.023C514.365 524.428 515.246 564.407 513.804 567.015C512.342 567.982 512.63 568.045 511.037 568.247C509.086 565.713 510.239 524.07 510.066 518.042C492.926 518.13 475.785 518.065 458.646 517.846C457.109 516.394 456.152 515.556 454.87 513.897C455.044 511.159 456.091 509.616 457.566 507.409C461.625 505.123 473.655 505.919 478.738 505.926C489.092 505.94 499.566 505.925 509.916 506.081Z"/></svg>